<?xml version="1.0" encoding="UTF-8" standalone="no"?>
<svg
   xmlns:dc="http://purl.org/dc/elements/1.1/"
   xmlns:cc="http://creativecommons.org/ns#"
   xmlns:rdf="http://www.w3.org/1999/02/22-rdf-syntax-ns#"
   xmlns:svg="http://www.w3.org/2000/svg"
   xmlns="http://www.w3.org/2000/svg"
   viewBox="0 0 499.34668 419.18668"
   height="419.18668"
   width="499.34668"
   xml:space="preserve"
   id="svg2"
   version="1.1"><metadata
     id="metadata8"><rdf:RDF><cc:Work
         rdf:about=""><dc:format>image/svg+xml</dc:format><dc:type
           rdf:resource="http://purl.org/dc/dcmitype/StillImage" /></cc:Work></rdf:RDF></metadata><defs
     id="defs6" /><g
     transform="matrix(1.3333333,0,0,-1.3333333,0,419.18667)"
     id="g10"><g
       transform="scale(0.1)"
       id="g12"><path
         id="path14"
         style="fill:#100f0d;fill-opacity:1;fill-rule:nonzero;stroke:none"
         d="m 1437.77,2542.7 h 1608.66 l 463.35,463.35 H 1901.12 Z m -698.7,-137.86 v -365.87 l 365.87,365.87 z M 235.344,1340.28 h 365.867 v 365.86 z m 1104.936,0 h 503.73 l 463.35,463.35 H 1340.28 Z M 739.07,1202.42 V 235.34 l 463.35,463.351 V 1202.42 Z M 670.125,0 c -8.879,0 -17.832,1.71875 -26.359,5.25 -25.762,10.6602 -42.555,35.8008 -42.555,63.6797 V 1202.42 H 68.9336 c -27.8789,0 -53.0156,16.79 -63.68751,42.55 -10.66406,25.76 -4.769527,55.4 14.94531,75.12 l 581.0196,581.02 v 572.66 c 0,38.07 30.863,68.93 68.93,68.93 H 1242.8 l 581.02,581.02 c 12.93,12.92 30.46,20.19 48.75,20.19 h 1803.62 c 27.88,0 53.01,-16.79 63.68,-42.55 10.68,-25.76 4.77,-55.41 -14.94,-75.12 l -601.2,-601.21 c -12.93,-12.93 -30.47,-20.19 -48.75,-20.19 H 1299.91 L 739.07,1844 v -503.72 h 463.35 v 532.28 c 0,38.07 30.86,68.93 68.93,68.93 h 1202.42 c 27.88,0 53.01,-16.79 63.68,-42.55 10.68,-25.76 4.77,-55.41 -14.93,-75.12 l -601.21,-601.21 c -12.93,-12.93 -30.47,-20.19 -48.74,-20.19 H 1340.28 V 670.141 c 0,-18.282 -7.26,-35.809 -20.19,-48.731 L 718.883,20.1914 C 705.695,7 688.063,0 670.125,0" /></g></g></svg>