<svg id="Layer_1" data-name="Layer 1" xmlns="http://www.w3.org/2000/svg" viewBox="0 0 1260.88 461.74"><defs><style>.cls-1{fill:#fff;}</style></defs><path class="cls-1" d="M98.57,461.74A10.37,10.37,0,0,1,88.2,451.36v-166H10.37A10.37,10.37,0,0,1,3,267.64L88.2,182.47V98.57A10.37,10.37,0,0,1,98.57,88.2h83.9L267.63,3A10.38,10.38,0,0,1,275,0H539.56a10.37,10.37,0,0,1,7.34,17.7l-88.2,88.21a10.41,10.41,0,0,1-7.34,3H191.06l-82.12,82.12V264.6H176.4V186.77a10.37,10.37,0,0,1,10.37-10.37H363.16a10.37,10.37,0,0,1,7.34,17.7l-88.2,88.2a10.35,10.35,0,0,1-7.33,3H197.14v77.83a10.35,10.35,0,0,1-3,7.33l-88.2,88.2A10.37,10.37,0,0,1,98.57,461.74Zm10.37-176.4v141l67.46-67.45V285.34Zm88.2-20.74h73.53l67.45-67.46h-141Zm-161.73,0H88.2V211.81Zm73.53-155.66v52.79l52.79-52.79ZM211.81,88.2H447.07l67.46-67.46H279.26Z" transform="translate(0)"/><path class="cls-1" d="M585.76,169.5v53.26h84.5v27.5h-84.5v67h-32.5v-175H681V169.5Z" transform="translate(0)"/><path class="cls-1" d="M731.88,241V142.25h32.5v97.51c0,36,16.25,51.5,44.5,51.5s44.25-15.5,44.25-51.5V142.25h32V241c0,51-28.75,78.75-76.51,78.75C760.63,319.76,731.88,292,731.88,241Z" transform="translate(0)"/><path class="cls-1" d="M936.75,298.76,948,273.51c14,11.25,36.25,19.25,57.75,19.25,27.25,0,38.75-9.75,38.75-22.75,0-37.75-104-13-104-78,0-28.26,22.5-52.26,70.5-52.26,21,0,43,5.5,58.26,15.5L1059,180.5c-15.75-9.25-33-13.75-48.25-13.75-27,0-38,10.5-38,23.75,0,37.26,103.76,13,103.76,77.26,0,28-22.76,52-70.76,52C978.5,319.76,951.25,311.26,936.75,298.76Z" transform="translate(0)"/><path class="cls-1" d="M1260.88,290v27.25H1129.62v-175h127.76V169.5h-95.25V215h84.5v26.75h-84.5V290Z" transform="translate(0)"/></svg>